# xmcd CD database file
#
# Track frame offsets:
#	150
#	11570
#	20085
#	30237
#	40492
#	51617
#	64152
#	75690
#	88042
#	97572
#	108682
#	118002
#
# Disc length: 1736 seconds
#
# Revision: 1
# Processed by: cddbd v1.5.2PL0 Copyright (c) Steve Scherf et al.
# Submitted via: CDex 1.70beta1
#
DISCID=9706c60c
DTITLE=Dick Williams Kids - Sing For Big People (And Little People, Too)
DYEAR=1964
DGENRE=Jazz
TTITLE0=Come Rain Or Come Shine
TTITLE1=Sometimes I'm Happy
TTITLE2=I'm In The Mood For Love
TTITLE3=All Of Me
TTITLE4=Some Of These Days
TTITLE5=Nobody's Heart
TTITLE6=My Blue Heaven
TTITLE7=Nearness Of You
TTITLE8=That Old Feeling
TTITLE9=It's The Talk Of The Town
TTITLE10=After You've Gone
TTITLE11=All By Myself
EXTD=YEAR: 1964
EXTT0=
EXTT1=
EXTT2=
EXTT3=
EXTT4=
EXTT5=
EXTT6=
EXTT7=
EXTT8=
EXTT9=
EXTT10=
EXTT11=
PLAYORDER=
